<svg width="22" height="21" viewBox="0 0 22 21" fill="none" xmlns="http://www.w3.org/2000/svg">
<g id="Group 12627">
<g id="Group 11858">
<path id="Ellipse 140" d="M10.5761 20C15.8528 20 20.1441 15.7542 20.1441 10.5C20.1441 5.2458 15.8528 1 10.5761 1C5.29932 1 1.00806 5.2458 1.00806 10.5C1.00806 15.7542 5.29932 20 10.5761 20Z" stroke="black" stroke-width="2"/>
<path id="Vector 226" d="M7.04806 18C7.85446 16.3689 12.2897 12.2911 19.1441 13.1066" stroke="black" stroke-width="2" stroke-linecap="round" stroke-linejoin="round"/>
<path id="Vector" d="M9.30907 10.8789C7.40204 8.41052 7.04806 8.15718 7.04806 7.25C7.04806 6.00736 8.1763 5 9.56806 5C10.9598 5 12.0881 6.00736 12.0881 7.25C12.0881 8.15718 11.7341 8.41052 9.82704 10.8789C9.70189 11.0404 9.43421 11.0403 9.30907 10.8789Z" stroke="black" stroke-width="2"/>
</g>
</g>
</svg>
