<svg width="22" height="21" viewBox="0 0 22 21" fill="none" xmlns="http://www.w3.org/2000/svg">
<g id="Group 12629">
<path id="Ellipse 140" d="M11.176 20C16.4528 20 20.744 15.7542 20.744 10.5C20.744 5.2458 16.4528 1 11.176 1C5.8993 1 1.60803 5.2458 1.60803 10.5C1.60803 15.7542 5.8993 20 11.176 20Z" stroke="#4631D2" stroke-width="2"/>
<path id="Ellipse 45" d="M13.704 7.5C13.704 8.87321 12.5798 10 11.176 10C9.77234 10 8.64804 8.87321 8.64804 7.5C8.64804 6.12679 9.77234 5 11.176 5C12.5798 5 13.704 6.12679 13.704 7.5Z" stroke="#4631D2" stroke-width="2"/>
<path id="Ellipse 44" d="M15.712 19C15.712 16.2386 13.6812 14 11.176 14C8.67087 14 6.64003 16.2386 6.64003 19" stroke="#4631D2" stroke-width="2"/>
</g>
</svg>
