<svg width="22" height="22" viewBox="0 0 22 22" fill="none" xmlns="http://www.w3.org/2000/svg">
<g id="Group 12628">
<path id="Ellipse 140" d="M9.62238 21C14.2561 21 18.0447 17.3085 18.0447 12.7155C18.0447 8.12255 14.2561 4.43106 9.62238 4.43106C4.98863 4.43106 1.20007 8.12255 1.20007 12.7155C1.20007 17.3085 4.98863 21 9.62238 21Z" stroke="black" stroke-width="2"/>
<path id="Vector" d="M12.1796 13.6706C14.0301 12.8232 15.7146 11.0582 15.8011 8.26594L19.4954 5.10105C19.496 5.10052 19.4967 5.09998 19.4973 5.09944C20.1178 4.57041 20.4388 3.46517 19.6821 2.69618L18.7195 1.71786C18.0032 0.989931 16.9571 1.22396 16.4015 1.77077L6.90185 11.1196C6.35032 11.6623 6.09369 12.7069 6.81167 13.4366C7.43591 14.071 8.39864 14.2909 9.27009 14.3043C10.1862 14.3184 11.2158 14.112 12.1796 13.6706Z" fill="white" stroke="black" stroke-width="2"/>
</g>
</svg>
